<?xml version="1.0" encoding="UTF-8"?>
<svg id="Layer_2" data-name="Layer 2" xmlns="http://www.w3.org/2000/svg" viewBox="0 0 95.45 91.33">
  <defs>
    <style>
      .cls-1, .cls-2 {
        fill: #28aee4;
      }

      .cls-3 {
        fill: #f1f2f2;
      }

      .cls-3, .cls-4 {
        stroke: #fff;
        stroke-miterlimit: 10;
        stroke-width: .25px;
      }

      .cls-2, .cls-5 {
        fill-rule: evenodd;
      }

      .cls-5 {
        fill: #1870b9;
      }

      .cls-4 {
        fill: none;
      }
    </style>
  </defs>
  <g id="Layer_1-2" data-name="Layer 1">
    <polygon class="cls-2" points=".03 32.66 24.31 39.55 36.01 66.01 11.73 59.12 .03 32.66"/>
    <polygon class="cls-5" points="47.88 .05 55.68 18.1 24.24 39.53 .03 32.66 47.88 .05"/>
    <polygon class="cls-5" points="95.27 59.22 47.52 91.33 23.24 84.44 70.99 52.34 95.27 59.22"/>
    <polygon class="cls-5" points="59.91 26.92 67.86 44.91 36.23 66.08 11.77 59.13 59.91 26.92"/>
    <polygon class="cls-2" points="47.76 .09 72.03 6.98 79.98 24.97 55.71 18.08 47.76 .09"/>
    <polygon class="cls-2" points="59.91 26.93 84.19 33.81 95.45 59.28 71.17 52.39 59.91 26.93"/>
  </g>
  <g id="Layer_2-2" data-name="Layer 2">
    <polyline class="cls-1" points="39.48 73.52 38.93 72.28 15.65 67.77 23.24 84.44"/>
    <line class="cls-4" x1="47.88" y1=".05" x2="55.68" y2="18.1"/>
    <line class="cls-4" x1=".03" y1="32.66" x2="24.31" y2="39.55"/>
    <line class="cls-3" x1="70.99" y1="52.34" x2="95.27" y2="59.22"/>
  </g>
</svg>